<?xml version="1.0" encoding="utf-8"?>
<!-- Generator: Adobe Illustrator 17.1.0, SVG Export Plug-In . SVG Version: 6.00 Build 0)  -->
<!DOCTYPE svg PUBLIC "-//W3C//DTD SVG 1.1//EN" "http://www.w3.org/Graphics/SVG/1.1/DTD/svg11.dtd">
<svg version="1.1" id="Calque_1" xmlns="http://www.w3.org/2000/svg" xmlns:xlink="http://www.w3.org/1999/xlink" x="0px" y="0px"
	 viewBox="0 0 33 42" enable-background="new 0 0 33 42" xml:space="preserve">
<path fill-opacity="0.2" d="M31.7,28.2c2.7-4.8,1.1-10.7-3.5-13.2c-4.6-2.5-10.4-0.7-13.1,4c0,0.1-0.1,0.2-0.1,0.3l0,0
	c-0.1,0.2-0.2,0.4-0.3,0.6c0,0,0,0.1,0,0.1c-0.1,0.2-0.2,0.4-0.2,0.6c-0.1,0.1-0.1,0.3-0.1,0.4c-2,6.6-0.8,20.4-0.8,20.4
	s11.2-5.8,16.2-10.7c0.4-0.3,0.7-0.7,1-1.1c0.3-0.4,0.6-0.8,0.8-1.2c0,0,0-0.1,0-0.1C31.6,28.4,31.7,28.3,31.7,28.2z"/>
<path fill="#E75236" d="M26.3,13.7C26.3,6.1,20.4,0,13.1,0C5.9,0,0,6.1,0,13.7c0,0.1,0,0.3,0,0.4h0c0,0.3,0,0.6,0.1,1
	c0,0.1,0,0.1,0,0.2c0,0.3,0.1,0.6,0.1,0.9c0,0.2,0.1,0.4,0.1,0.6C2.3,26,13.1,42,13.1,42s9.7-14.7,12.4-23.9
	c0.2-0.7,0.4-1.4,0.5-2.1c0.1-0.7,0.2-1.4,0.2-2c0,0,0-0.1,0-0.1C26.3,13.9,26.3,13.8,26.3,13.7z"/>
<path display="none" opacity="0.3" d="M18.3,6.5c-0.5-0.4-1.1-0.7-1.7-0.9c-0.8-0.3-1.9-0.4-3-0.4c-2.1,0-4.1,0.5-5.8,1.4L9,9.3
	c1.6-0.7,2.7-1.1,3.9-1.1c1.6,0,2,0.8,2,2.3v0.7l-2.3,0.1c-0.8,0-1.4,0.1-2,0.2c-1.2,0.2-2.1,0.6-2.8,1.1c-1.1,0.8-1.6,1.9-1.6,3.5
	c0,1.5,0.4,2.7,1.3,3.5c0.8,0.8,2,1.2,3.4,1.2c1.2,0,3.4-0.1,4.2-1.1c0.4-0.4,1.1-1.3,1.1-1.3l0.6,2.6H20v-5.8v-3.8v-0.9
	C20,8.7,19.3,7.4,18.3,6.5z M15,14.4v0.4c0,0.9,0,1.6-0.5,2.2c-0.6,0.6-1.2,0.8-2.1,0.8c-1.3,0-1.9-0.6-1.9-1.7
	c0-0.8,0.3-1.4,0.9-1.8c0.6-0.4,1.5-0.6,2.6-0.6c0,0-0.2,0-0.2,0l1.3-0.1V14.4z"/>
<path opacity="0.85" fill-opacity="0.3" d="M18.4,6.4c-0.5-0.4-1-0.7-1.7-0.9c-0.8-0.3-1.8-0.4-3-0.4c-2.1,0-4,0.5-5.8,1.4l1.4,2.8
	c1.6-0.7,3.1-1.1,4.3-1.1c1.6,0,2.4,0.8,2.4,2.3v0.7l-2.6,0.1c-0.8,0-1.5,0.1-2.2,0.2C10,11.6,9,12,8.3,12.5
	c-1.1,0.8-1.7,1.9-1.7,3.5c0,1.5,0.4,2.7,1.2,3.5c0.8,0.8,2,1.2,3.4,1.2c1.2,0,2.1-0.1,2.9-0.5c0.7-0.3,1.4-1,2.1-1.8h0.1l0.8,1.9
	H20v-5.3v-3.8v-0.9C20,8.7,19.5,7.3,18.4,6.4z M16,14.8c0,0.9-0.3,1.6-0.9,2.2c-0.6,0.5-1.3,0.8-2.3,0.8c-1.3,0-2-0.6-2-1.7
	c0-0.8,0.3-1.4,0.9-1.8c0.6-0.4,1.4-0.6,2.6-0.6c0,0,0.1,0,0.1,0l1.6-0.1v0.8V14.8z"/>
</svg>
