<svg xmlns="http://www.w3.org/2000/svg" viewBox="0 149.5 959.8 260.9" enable-background="new 0 149.5 959.8 260.9"><linearGradient id="a" gradientUnits="userSpaceOnUse" x1="-245.401" y1="-141.797" x2="-243.891" y2="-141.797" gradientTransform="matrix(0 91.851 91.851 0 13968.249 22803.451)"><stop offset="0" stop-color="#6A8D9E"/><stop offset="1" stop-color="#002E3F"/></linearGradient><path fill="url(#a)" d="M944.4 281.3l4.5-10.6c-3.2 2.9-6.3 5.5-9.5 8.2l5 2.4z"/><path fill="#003C50" d="M430 359.7c-15.6-1.3-30.9-3.7-45.9-7.1v53.6h45.9v-46.5zm448.4-25.1c9 3.7 16.1 7.1 21.6 10 5.3 2.9 9.2 5.5 11.3 7.7 2.1 2.4 3.4 5.3 3.4 8.7 0 9.5-8.4 14.5-24.8 14.5-8.2 0-17.4-1.3-28.2-4-10.6-2.6-20.3-6.1-28.8-10v37.7c7.4 3.2 15.6 5.5 24.3 7.4 8.7 1.6 19 2.4 31.1 2.4 23.8 0 41.7-4.5 53.6-13.5s17.9-22.2 17.9-39.3c0-8.2-1.3-15.6-4.5-21.4-2.9-6.1-7.4-11.4-13.5-15.8-6.1-4.5-15.8-9.5-28.8-14.8l-6.1-2.4c-15.8 9.2-33 16.9-51.2 22.4 6.4 3 13.8 6.7 22.7 10.4z"/><path fill="#F9B233" d="M310.7 305.9v-33.3h47v-34.3h-47v-35.9h-29.3l-13.2 35.4-25.3 15.3v19.3h21.9v21.4c7.9 6.3 15.8 12.4 24.3 17.9 7.6-1.6 14.7-3.7 21.6-5.8z"/><path fill="#003C50" d="M289.3 311.7c-7.9 1.8-16.1 3.2-24.3 4v37.7c0 18.5 4.2 32.5 12.7 41.7 8.4 9.2 21.6 14 40.1 14 16.6 0 30.6-2.6 42-7.7v-34.1c-11.1 3.4-20.9 5.3-28.8 5.3-6.1 0-10.8-1.6-14.5-4.8-3.7-3.2-5.5-7.9-5.5-14.5v-29c-7.7-3.9-14.8-8.1-21.7-12.6z"/><path fill="#F9B233" d="M430 219.8v-47.5h-45.9v94.5c17.4-13.5 32.9-29.3 45.9-47zm-205.6 18.8c0-30.1-9-52.3-26.9-67-7.9-6.3-17.2-11.4-28-15 12.1 36.2 30.9 69.2 54.9 97.4v-15.4z"/><path fill="#003C50" d="M125.6 402.2c12.1-5.5 24-15.8 35.6-30.4h1.8l13.2 34.3h48v-89.1c-23.8-1.3-46.7-6.1-68.1-14v7.4c0 15-4.8 27.2-14.3 36.4s-22.2 13.7-38 13.7c-22.2 0-33.3-9.8-33.3-29 0-13.5 4.8-23.5 14.5-30.1 9.5-6.3 23.8-10 43-10.8-18.7-9.8-36.2-21.9-51.7-36.2-20.1 3.4-36.4 9.2-48.6 17.4-18.5 12.7-27.7 32.5-27.7 59.1 0 25.6 6.9 45.1 20.9 58.9s33 20.6 57 20.6c19.5.3 35.6-2.6 47.7-8.2zm562.5 7.7c16.4 0 29.6-2.4 39.6-6.9 10-4.8 20.1-12.9 29.6-25.1h1.6l11.1 28.2h39.6v-73.1c-7.4.8-14.5 1.1-22.2 1.1-11.6 0-23.2-.8-34.6-2.6-.8 10.3-4.8 18.7-11.6 25.3-7.9 7.7-18.5 11.4-31.7 11.4-18.5 0-27.5-7.9-27.5-24 0-11.1 4-19.5 12.1-25.1 1.3-.8 2.6-1.6 4.2-2.4-16.4-6.6-31.9-15-46.5-25.1-1.8 1.1-3.4 2.1-5 3.2-15.6 10.6-23.2 26.7-23.2 48.8 0 21.1 5.8 37.5 17.2 48.8 11.7 11.7 27.3 17.5 47.3 17.5z"/><path fill="#00A19A" d="M643 212.4l18.7 38.3c11.6-5.3 22.4-9 32.5-11.6 10.6-14.3 20.1-29.6 28-45.7-29.1.3-55.5 6.6-79.2 19z"/><path fill="#003C50" d="M508.4 409.1c13.2 0 23.8-1.8 31.9-5.5 8.2-3.7 16.1-10.6 23.8-20.3h1.3l9 23h31.9v-87.1c-14.5 8.4-29.6 15.8-45.4 21.9v1.1c0 10-3.2 18.2-9.5 24.3-6.3 6.1-14.8 9.2-25.3 9.2-14.8 0-22.2-6.3-22.2-19.3-15.3 2.6-30.9 4-47 4.2.8 14.8 5.3 26.4 13.7 34.8 8.7 9.2 21.4 13.7 37.8 13.7z"/><path fill="#E94F35" d="M289.3 311.7c-8.4-5.5-16.6-11.6-24.3-17.9v21.9c8.2-.9 16.4-2.2 24.3-4zM129.6 290.6l26.7-.8v13.5c21.4 7.9 44.3 12.7 68.1 14v-63.3c-24-28.2-42.8-61.2-54.9-97.4-14-4.8-30.6-7.1-49.6-7.1-35.4 0-67.6 7.7-96.3 22.7l22.7 46.5c27.2-12.1 50.7-18.2 71-18.2 26.1 0 39.1 12.7 39.1 38.3v11.1l-43.6 1.3c-13.2.5-25.1 1.6-35.9 3.4 15.6 14.3 32.7 26.4 51.7 36.2h1v-.2z"/><path fill="#00A19A" d="M310.7 324.3v-18.7c-7.1 2.4-14.3 4.2-21.4 5.8 6.9 4.8 14 9 21.4 12.9zM430 219.8c-12.9 17.7-28.5 33.5-45.9 47.2v85.5c14.8 3.4 30.1 6.1 45.9 7.1v-139.8zM503.4 356.3c0-9 3.2-15.8 9.8-20.1 6.6-4.5 16.4-6.9 29.8-7.1l17.7-.5v12.7c15.8-6.1 31.1-13.5 45.4-21.9v-24.8c0-20.1-6.1-34.8-17.9-44.9-11.9-9.8-29.3-14.8-51.7-14.8-23.5 0-44.9 5-64.4 15l15 30.9c18.2-8.2 33.8-12.1 47.2-12.1 17.4 0 26.1 8.4 26.1 25.6v7.4l-29 .8c-25.1.8-43.8 5.5-56.5 14-12.4 8.4-18.7 21.6-18.7 39.3 0 1.6 0 3.2.3 4.8 16-.1 31.6-1.7 46.9-4.3z"/><path fill="#0093D9" d="M730.9 310.4l21.9-.8v17.2c0 1.6 0 3.2-.3 4.8 11.3 1.6 22.7 2.6 34.6 2.6 7.4 0 14.8-.3 22.2-1.1v-65.7c0-24.8-7.4-43.3-22.4-55.4-14.8-12.1-36.4-18.2-64.1-18.2h-.5c-7.9 16.1-17.4 31.4-28 45.7 9.5-2.4 18.2-3.7 26.4-3.7 21.6 0 32.5 10.6 32.5 31.7v9.2l-36.2 1.1c-28 1.1-49.6 5.8-64.9 14.3 14.5 10 29.8 18.2 46.5 25.1 7.7-4.2 18.6-6.3 32.3-6.8zM850.2 247.3c-11.6 8.2-17.4 19.8-17.4 34.6 0 8.7 1.3 16.1 4.2 21.9 2.6 6.1 7.1 11.4 13.2 15.8 1.8 1.3 4 2.6 6.1 4.2 17.9-5.5 35.1-12.9 51.2-22.4-11.3-4.8-19-8.4-22.7-10.8-4.5-2.9-6.6-6.6-6.6-10.6 0-7.4 6.9-11.1 20.3-11.1 7.7 0 15 1.1 22.4 3.4 5.8 1.8 11.9 4 18.5 6.9l9.5-8.2 9.5-22.7c-19-8.7-38.8-13.2-59.1-13.2-21.1 0-37.8 4-49.1 12.2z"/></svg>